HIERARCHY
ROOT Hips
{
	OFFSET 0.00000 0.00000 0.00000
	CHANNELS 6 Xposition Yposition Zposition Zrotation Yrotation Xrotation 
	JOINT RightUpLegDummy
	{
		OFFSET 0 0 0
		CHANNELS 3 Zrotation Yrotation Xrotation
		JOINT RightUpLeg
		{
			OFFSET -3.52197 -3.41223 0.04002
			CHANNELS 3 Zrotation Yrotation Xrotation
			JOINT RightLeg
			{
				OFFSET 0.00006 -17.42390 1.60435
				CHANNELS 3 Zrotation Yrotation Xrotation
				JOINT RightFoot
				{
					OFFSET 0.06153 -16.50078 -1.63901
					CHANNELS 3 Zrotation Yrotation Xrotation
					JOINT RightToes
					{
						OFFSET 0.00298 -1.73825 3.34613
						CHANNELS 3 Zrotation Yrotation Xrotation
						End Site
						{
							OFFSET 0.00480 -0.05416 3.85043
						}
					}
				}
			}
		}
	}
	JOINT SpineDummy
	{
		OFFSET 0 0 0
		CHANNELS 3 Zrotation Yrotation Xrotation
		JOINT Spine
		{
			OFFSET 0.00000 4.68130 0.00000
			CHANNELS 3 Zrotation Yrotation Xrotation
			JOINT Spine1
			{
				OFFSET -0.00000 10.10138 0.05002
				CHANNELS 3 Zrotation Yrotation Xrotation
				JOINT HEadDummy
				{
					OFFSET 0 0 0
					CHANNELS 3 Zrotation Yrotation Xrotation
					JOINT Head
					{
						OFFSET -0.00000 3.43865 0.00438
						CHANNELS 3 Zrotation Yrotation Xrotation
						End Site
						{
							OFFSET -0.11417 5.02924 0.98962
						}
					}
				}
				JOINT LeftShoulder1Dummy
				{
					OFFSET 0 0 0
					CHANNELS 3 Zrotation Yrotation Xrotation
					JOINT LeftShoulder1
					{
						OFFSET 3.53937 -0.14262 -0.08662
						CHANNELS 3 Zrotation Yrotation Xrotation
						JOINT LeftArm
						{
							OFFSET 4.04833 -0.00133 0.12681
							CHANNELS 3 Zrotation Yrotation Xrotation
							JOINT LeftForeArm
							{
								OFFSET 10.33880 -0.01036 -0.55515
								CHANNELS 3 Zrotation Yrotation Xrotation
								JOINT LeftHand
								{
									OFFSET 8.69677 0.07543 0.40060
									CHANNELS 3 Zrotation Yrotation Xrotation
									End Site
									{
										OFFSET 5.28377 -0.21905 0.59205
									}
								}
							}
						}
					}
				}
				JOINT RightShoulderDummy
				{
					OFFSET 0 0 0
					CHANNELS 3 Zrotation Yrotation Xrotation
					JOINT RightShoulder
					{
						OFFSET -3.53937 -0.14262 -0.08660
						CHANNELS 3 Zrotation Yrotation Xrotation
						JOINT RightArm
						{
							OFFSET -4.04833 -0.00133 0.12683
							CHANNELS 3 Zrotation Yrotation Xrotation
							JOINT RightForeArm
							{
								OFFSET -10.37987 -0.01039 -0.55511
								CHANNELS 3 Zrotation Yrotation Xrotation
								JOINT RightHand
								{
									OFFSET -8.67398 0.07538 0.40058
									CHANNELS 3 Zrotation Yrotation Xrotation
									End Site
									{
										OFFSET -5.24810 -0.21916 0.59204
									}
								}
							}
						}
					}
				}
			}
		}
	}
	JOINT LeftUpLegDummy
	{
		OFFSET 0 0 0
		CHANNELS 3 Zrotation Yrotation Xrotation
		JOINT LeftUpLeg
		{
			OFFSET 3.52197 -3.41223 0.04002
			CHANNELS 3 Zrotation Yrotation Xrotation
			JOINT LeftLeg
			{
				OFFSET -0.00012 -17.42399 1.60337
				CHANNELS 3 Zrotation Yrotation Xrotation
				JOINT LeftFoot
				{
					OFFSET -0.09972 -16.50070 -1.63802
					CHANNELS 3 Zrotation Yrotation Xrotation
					JOINT LeftToes
					{
						OFFSET -0.01575 -1.73823 3.34611
						CHANNELS 3 Zrotation Yrotation Xrotation
						End Site
						{
							OFFSET 0.03150 -0.01868 3.85031
						}
					}
				}
			}
		}
	}
}
MOTION
Frames: 15
Frame Time: 0.033333
-26.2101 38.5538 -3.2339 165.8340 -86.2127 -172.0250 0.0000 0.0000 0.0000 -0.9316 -6.7214 14.6468 4.1148 8.0660 22.5699 -2.7305 -0.1333 -14.6913 0.0000 -0.0000 0.0000 0.0000 0.0000 0.0000 0.7231 2.5038 6.5243 1.4624 2.3171 0.5826 -0.0000 0.0000 -0.0000 2.4761 0.2434 -3.8381 -0.0000 0.0000 -0.0000 -35.7214 -2.3950 2.4648 -42.1239 -7.0175 -21.9502 -9.2746 5.1770 46.8526 13.9219 -2.7989 -0.9599 -0.0000 0.0000 -0.0000 35.4698 5.2826 3.6465 36.8163 2.2831 -16.0461 11.1232 3.0990 21.4144 -12.0079 1.8947 -0.7382 0.0000 0.0000 0.0000 -1.5463 -0.5430 -14.2438 1.1870 8.2480 9.5127 -1.3575 0.1798 7.4774 0.0000 0.0000 -0.0000
-27.3578 38.4741 -3.0898 155.0550 -85.3441 -161.5830 0.0000 0.0000 0.0000 -3.7396 -7.9243 12.6961 6.3764 9.2233 30.0746 1.4474 -0.0718 -10.3957 0.0000 -0.0000 0.0000 0.0000 0.0000 0.0000 -0.7763 2.3312 6.4909 1.8558 2.0743 0.3522 -0.0000 0.0000 -0.0000 2.7531 0.4398 -3.2015 -0.0000 0.0000 -0.0000 -35.4541 -2.3385 2.4253 -42.3848 -5.9862 -23.5382 -8.3208 5.1487 48.2071 13.4157 -2.5762 -0.8997 -0.0000 0.0000 -0.0000 35.6380 5.3036 3.6703 37.3821 -0.3511 -17.4810 10.7109 2.5390 21.0840 -11.8474 1.8030 -0.7194 0.0000 0.0000 0.0000 -2.6199 -0.2121 -13.9500 1.1245 8.4546 13.2195 -0.1621 -0.0047 5.4363 0.0000 0.0000 -0.0000
-28.3648 38.3581 -2.9265 149.5200 -84.5197 -156.4330 0.0000 0.0000 0.0000 -5.9051 -8.1730 9.0326 8.0438 8.4097 39.3181 8.1906 -0.6289 -3.0919 0.0000 -0.0000 0.0000 0.0000 0.0000 0.0000 -1.6392 1.9919 7.2440 1.8288 1.7445 -0.3367 -0.0000 0.0000 -0.0000 2.8107 0.5093 -2.5695 -0.0000 0.0000 -0.0000 -34.8308 -2.2764 2.3627 -43.0504 -5.1962 -24.1361 -7.9450 5.1386 48.6797 12.8803 -2.4863 -0.8532 -0.0000 0.0000 -0.0000 35.5861 5.2916 3.6607 38.1425 -2.5155 -18.5251 10.4281 2.1917 20.4682 -11.7044 1.6509 -0.6963 0.0000 0.0000 0.0000 -3.7000 0.2330 -13.7081 1.2254 8.4660 16.9831 1.4561 -0.1850 2.0816 0.0000 0.0000 -0.0000
-29.2308 38.2170 -2.7780 151.0260 -83.5638 -158.5920 0.0000 0.0000 0.0000 -6.7722 -7.0857 4.5942 7.2647 5.5582 48.3072 14.0190 -1.9182 4.4927 0.0000 -0.0000 0.0000 0.0000 0.0000 0.0000 -1.8183 1.7554 8.8270 1.7545 1.5166 -1.1497 -0.0000 0.0000 -0.0000 2.3777 0.8242 -2.3766 -0.0000 0.0000 -0.0000 -34.4595 -2.2710 2.3387 -43.4987 -4.8927 -23.6892 -8.2327 5.1415 48.4788 12.5974 -2.5987 -0.8452 -0.0000 0.0000 -0.0000 35.6241 5.2982 3.6668 38.5676 -4.0349 -19.0358 10.3407 2.1223 19.7618 -11.3236 1.6007 -0.6685 0.0000 0.0000 0.0000 -4.1983 0.6078 -13.2171 1.6860 8.8768 20.4455 2.0359 -0.1825 -0.9320 0.0000 0.0000 -0.0000
-30.0842 38.1493 -2.6782 155.8300 -82.7943 -164.1210 0.0000 0.0000 0.0000 -6.4682 -5.6503 0.3366 3.9381 2.3615 55.4285 15.1426 -2.5408 7.8984 0.0000 -0.0000 0.0000 0.0000 0.0000 0.0000 -1.7672 1.4676 10.3107 2.1168 1.1521 -1.5303 -0.0000 0.0000 -0.0000 1.5362 1.9133 -2.7653 -0.0000 0.0000 -0.0000 -34.6181 -2.2810 2.3521 -43.4367 -5.2603 -22.7640 -8.7808 5.1456 48.1444 12.7205 -2.8532 -0.8799 -0.0000 0.0000 -0.0000 35.8178 5.3311 3.6980 38.5577 -4.8027 -19.1955 10.3191 2.0443 19.8257 -10.9082 1.6606 -0.6485 0.0000 0.0000 0.0000 -4.0956 0.9984 -12.1582 2.1933 9.3245 22.9508 1.7987 -0.1026 -3.4774 0.0000 0.0000 -0.0000
-31.0243 38.2271 -2.6279 160.5750 -82.7240 -169.4190 0.0000 0.0000 0.0000 -5.4916 -4.9854 -3.3290 -0.5221 -0.0790 59.8626 11.3628 -1.7745 6.4341 0.0000 -0.0000 0.0000 0.0000 0.0000 0.0000 -1.7409 0.8494 11.0517 2.9254 0.3636 -1.4093 -0.0000 0.0000 -0.0000 0.6199 3.3436 -3.2800 -0.0000 0.0000 -0.0000 -34.8490 -2.2502 2.3531 -43.2326 -6.3901 -21.9750 -9.1141 5.1379 48.2893 13.1642 -3.1169 -0.9397 -0.0000 0.0000 -0.0000 35.9159 5.3468 3.7135 38.5850 -5.0841 -19.2525 10.2605 1.9564 20.5976 -10.9364 1.7269 -0.6560 0.0000 0.0000 0.0000 -3.7696 1.4270 -10.3370 2.3577 9.2001 23.8843 2.0081 -0.0689 -5.4859 0.0000 0.0000 -0.0000
-31.9914 38.3691 -2.6107 165.6580 -83.1773 -174.9270 0.0000 0.0000 0.0000 -4.2254 -4.9369 -6.3915 -4.8116 -1.8879 61.3759 6.1951 -0.7726 3.1242 0.0000 -0.0000 0.0000 0.0000 0.0000 0.0000 -1.6731 0.0609 11.4574 3.8651 -0.6309 -1.2736 -0.0000 0.0000 -0.0000 -0.0436 4.2119 -3.2987 -0.0000 0.0000 -0.0000 -34.7119 -2.2305 2.3371 -43.2164 -8.1295 -21.3812 -9.2003 5.1206 48.8498 13.6727 -3.2615 -0.9932 -0.0000 0.0000 -0.0000 35.7740 5.3246 3.6914 38.9859 -5.3354 -19.3712 10.1956 2.1688 20.7392 -11.2576 1.7815 -0.6807 0.0000 0.0000 0.0000 -3.3755 1.7189 -8.1970 2.3707 8.6840 23.9408 2.7625 -0.0657 -6.8998 0.0000 0.0000 -0.0000
-32.9189 38.4796 -2.6252 171.7170 -83.4498 178.6700 0.0000 0.0000 0.0000 -2.8960 -4.6967 -9.0270 -7.6430 -3.2670 60.2752 3.0672 -0.3190 0.8360 0.0000 -0.0000 0.0000 0.0000 0.0000 0.0000 -1.5312 -0.5132 11.8744 4.7323 -1.3891 -1.3429 -0.0000 0.0000 -0.0000 -0.3041 4.4159 -2.7468 -0.0000 0.0000 -0.0000 -34.3673 -2.2848 2.3389 -43.1853 -10.1438 -20.6531 -9.3635 5.1152 48.9731 13.9131 -3.2759 -1.0130 -0.0000 0.0000 -0.0000 35.5722 5.2969 3.6617 39.5432 -5.6680 -19.6023 10.1561 2.6660 19.6966 -11.3217 1.8585 -0.6916 0.0000 0.0000 0.0000 -2.8307 1.9457 -6.2582 2.4477 8.2786 24.0869 3.3080 -0.0434 -8.1511 0.0000 0.0000 -0.0000
-33.8190 38.5696 -2.6680 177.5830 -83.4343 172.7020 0.0000 0.0000 0.0000 -1.6690 -4.3464 -11.3427 -8.5820 -4.3386 56.7628 2.2159 -0.2118 -0.4502 0.0000 -0.0000 0.0000 0.0000 0.0000 0.0000 -1.3611 -0.8644 12.0446 5.4601 -1.8921 -1.4143 -0.0000 0.0000 -0.0000 -0.2120 4.5069 -2.1072 -0.0000 0.0000 -0.0000 -34.1666 -2.3552 2.3554 -42.8224 -12.2282 -19.6383 -9.7984 5.1379 48.0203 13.7680 -3.3342 -1.0085 -0.0000 0.0000 -0.0000 35.5244 5.2963 3.6571 39.9267 -5.8045 -19.8300 10.1152 3.0001 18.6596 -11.1981 1.8439 -0.6825 0.0000 0.0000 0.0000 -2.1475 2.2913 -4.5761 2.3807 8.0027 24.1917 3.5280 0.0010 -9.5178 0.0000 0.0000 -0.0000
-34.7060 38.6840 -2.7211 -176.8580 -83.5563 167.3800 0.0000 0.0000 0.0000 -0.5829 -4.5541 -13.1828 -8.0228 -5.1650 50.7656 2.4803 -0.2110 -1.9043 0.0000 -0.0000 0.0000 0.0000 0.0000 0.0000 -1.0748 -1.2361 11.7935 5.9791 -2.3798 -1.3734 -0.0000 0.0000 -0.0000 0.0534 4.6174 -1.7776 -0.0000 0.0000 -0.0000 -34.1365 -2.3537 2.3530 -42.2170 -14.3813 -18.5096 -10.3646 5.1801 46.2936 13.6062 -3.5499 -1.0200 -0.0000 0.0000 -0.0000 35.5832 5.3108 3.6684 40.1512 -5.5675 -19.8619 10.0870 2.9155 18.6228 -11.3136 1.6279 -0.6702 0.0000 0.0000 0.0000 -1.4580 2.6536 -2.9997 2.0836 7.5967 23.6804 3.7486 0.0423 -10.6740 0.0000 0.0000 -0.0000
-35.5740 38.8140 -2.7863 -170.9720 -83.7048 161.9440 0.0000 0.0000 0.0000 0.5020 -5.0393 -14.1943 -6.3893 -5.5448 42.3513 3.0686 -0.2376 -2.9095 0.0000 -0.0000 0.0000 0.0000 0.0000 0.0000 -0.5808 -1.5539 11.2579 6.2720 -2.7659 -1.2297 -0.0000 0.0000 -0.0000 0.3252 4.4425 -1.7607 -0.0000 0.0000 -0.0000 -34.0778 -2.3171 2.3349 -41.7243 -16.5454 -17.4256 -10.8712 5.2252 44.3991 13.9016 -3.7417 -1.0647 -0.0000 0.0000 -0.0000 35.6052 5.3188 3.6737 40.3724 -5.1032 -19.7032 10.1120 2.6363 18.9656 -11.4888 1.3232 -0.6532 0.0000 0.0000 0.0000 -0.8178 2.8758 -1.4838 1.8503 7.1991 22.6615 3.9311 0.0715 -11.4262 0.0000 0.0000 -0.0000
-36.4231 38.9441 -2.8933 -166.8080 -83.4477 158.2340 0.0000 0.0000 0.0000 1.5397 -4.6823 -14.0790 -4.3445 -5.3644 31.9751 3.5795 -0.3110 -1.6281 0.0000 -0.0000 0.0000 0.0000 0.0000 0.0000 -0.1105 -1.5378 10.5639 6.4328 -2.7920 -0.9107 -0.0000 0.0000 -0.0000 0.5879 4.0173 -1.8909 -0.0000 0.0000 -0.0000 -33.8774 -2.3369 2.3309 -41.4940 -18.5358 -16.3521 -11.3109 5.2712 42.3973 14.5381 -3.7378 -1.1148 -0.0000 0.0000 -0.0000 35.6311 5.3276 3.6797 40.5637 -4.5994 -19.5842 10.1441 2.4370 18.9472 -11.4058 1.2296 -0.6397 0.0000 0.0000 0.0000 -0.2478 3.0387 0.1342 1.8126 7.1927 21.3752 3.9078 0.0938 -11.9828 0.0000 0.0000 -0.0000
-37.2404 39.0881 -3.0492 -166.0090 -83.1050 157.7750 0.0000 0.0000 0.0000 2.1459 -3.2644 -12.8704 -2.6353 -4.9441 20.5557 4.0554 -0.4651 1.8973 0.0000 -0.0000 0.0000 0.0000 0.0000 0.0000 -0.0053 -1.2976 9.8714 6.5459 -2.5970 -0.4839 -0.0000 0.0000 -0.0000 0.8953 3.7072 -2.0070 -0.0000 0.0000 -0.0000 -33.5917 -2.4001 2.3391 -41.3767 -20.2722 -15.2732 -11.7347 5.3303 40.1287 14.9278 -3.7662 -1.1493 -0.0000 0.0000 -0.0000 35.7667 5.3491 3.7010 40.6541 -4.0840 -19.6029 10.1146 2.3428 18.9820 -11.5506 1.5051 -0.6737 0.0000 0.0000 0.0000 0.1209 3.2233 2.0776 1.7069 7.4131 19.6067 3.7948 0.1086 -12.3740 0.0000 0.0000 -0.0000
-38.0083 39.2304 -3.2253 -166.2710 -83.3672 158.2930 0.0000 0.0000 0.0000 2.1224 -1.5754 -11.1494 -1.4419 -4.7833 9.8337 4.6017 -0.6366 4.8787 0.0000 -0.0000 0.0000 0.0000 0.0000 0.0000 -0.1885 -1.2277 9.3591 6.6058 -2.5612 -0.2375 -0.0000 0.0000 -0.0000 1.1645 3.4359 -1.9721 -0.0000 0.0000 -0.0000 -33.3875 -2.4142 2.3325 -41.2006 -21.8164 -14.2551 -12.1329 5.3161 37.9375 14.8863 -4.0633 -1.1820 -0.0000 0.0000 -0.0000 35.9299 5.3706 3.7247 40.7325 -3.5646 -19.5608 10.0768 2.3387 19.4568 -12.3509 1.9228 -0.7628 0.0000 0.0000 0.0000 0.2582 3.3920 4.1161 1.3686 7.1586 17.5289 3.7046 0.1111 -12.5021 0.0000 0.0000 -0.0000
-38.7495 39.3215 -3.4133 -165.4320 -84.1186 157.7560 0.0000 0.0000 0.0000 1.8079 -0.0345 -9.9385 -0.6127 -5.0408 2.4635 4.7157 -0.6620 5.0698 0.0000 -0.0000 0.0000 0.0000 0.0000 0.0000 -0.2707 -1.3407 8.9015 6.5765 -2.6691 -0.2445 -0.0000 0.0000 -0.0000 1.2665 3.0131 -1.6990 -0.0000 0.0000 -0.0000 -33.3547 -2.3562 2.3077 -41.0027 -23.1573 -13.2455 -12.5005 4.7080 36.4543 14.8740 -4.3362 -1.2142 -0.0000 0.0000 -0.0000 35.9779 5.3766 3.7322 40.8875 -3.1358 -19.3241 10.1193 2.5041 19.7579 -12.9534 2.1467 -0.8241 0.0000 0.0000 0.0000 0.4004 3.6807 5.7359 0.9928 6.1645 15.9583 3.5764 0.1153 -12.6091 0.0000 0.0000 -0.0000
